HIERARCHY
ROOT Hips
{
	OFFSET 52.876801 -7.033849 56.108700
	CHANNELS 6 Xposition Yposition Zposition Xrotation Yrotation Zrotation
	JOINT spine
	{
		OFFSET 0.000000 -0.367607 6.392601
		CHANNELS 3 Xrotation Yrotation Zrotation
		JOINT spine1
		{
			OFFSET 0.000000 -0.000001 9.176113
			CHANNELS 3 Xrotation Yrotation Zrotation
			JOINT spine2
			{
				OFFSET 0.000000 -0.000001 8.792381
				CHANNELS 3 Xrotation Yrotation Zrotation
				JOINT Neck
				{
					OFFSET 0.000000 -1.076244 22.573700
					CHANNELS 3 Xrotation Yrotation Zrotation
					JOINT Head
					{
						OFFSET 0.000000 -0.000001 6.820107
						CHANNELS 3 Xrotation Yrotation Zrotation
						End Site
						{
							OFFSET 0.000000 5.444268 16.508499
						}
					}
				}
				JOINT RightShoulder
				{
					OFFSET -3.702209 0.515506 9.495087
					CHANNELS 3 Xrotation Yrotation Zrotation
					JOINT RightArm
					{
						OFFSET 0.000000 -0.000002 12.453697
						CHANNELS 3 Xrotation Yrotation Zrotation
						JOINT RightArmRoll
						{
							OFFSET 0.000000 -0.000001 6.286858
							CHANNELS 3 Xrotation Yrotation Zrotation
							JOINT RightForeArm
							{
								OFFSET 0.000000 -0.000003 18.311401
								CHANNELS 3 Xrotation Yrotation Zrotation
								JOINT RightForeArmRoll
								{
									OFFSET 0.000000 -0.000001 7.054832
									CHANNELS 3 Xrotation Yrotation Zrotation
									JOINT RightHand
									{
										OFFSET 0.000000 -0.000002 14.157501
										CHANNELS 3 Xrotation Yrotation Zrotation
										End Site
										{
											OFFSET 0.000000 0.000000 0.100006
										}
									}
								}
							}
						}
					}
				}
				JOINT LeftShoulder
				{
					OFFSET 3.702209 0.515506 9.495087
					CHANNELS 3 Xrotation Yrotation Zrotation
					JOINT LeftArm
					{
						OFFSET 0.000000 -0.000002 12.453697
						CHANNELS 3 Xrotation Yrotation Zrotation
						JOINT LeftArmRoll
						{
							OFFSET 0.000000 -0.000001 6.286850
							CHANNELS 3 Xrotation Yrotation Zrotation
							JOINT LeftForeArm
							{
								OFFSET 0.000000 -0.000003 18.311401
								CHANNELS 3 Xrotation Yrotation Zrotation
								JOINT LeftForeArmRoll
								{
									OFFSET 0.000000 -0.000001 7.054825
									CHANNELS 3 Xrotation Yrotation Zrotation
									JOINT LeftHand
									{
										OFFSET 0.000000 -0.000002 14.157501
										CHANNELS 3 Xrotation Yrotation Zrotation
										End Site
										{
											OFFSET 0.000000 0.000000 0.100006
										}
									}
								}
							}
						}
					}
				}
			}
		}
	}
	JOINT RightUpLeg
	{
		OFFSET -5.666161 0.871610 -1.039028
		CHANNELS 3 Xrotation Yrotation Zrotation
		JOINT RightUpLegRoll
		{
			OFFSET 0.000000 -0.000002 16.600502
			CHANNELS 3 Xrotation Yrotation Zrotation
			JOINT RightLeg
			{
				OFFSET 0.000000 0.000003 -20.557198
				CHANNELS 3 Xrotation Yrotation Zrotation
				JOINT RightLegRoll
				{
					OFFSET 0.000000 -0.000004 20.624397
					CHANNELS 3 Xrotation Yrotation Zrotation
					JOINT RightFoot
					{
						OFFSET 0.000000 -0.000002 17.166405
						CHANNELS 3 Xrotation Yrotation Zrotation
						JOINT RightToeBase
						{
							OFFSET 0.000000 -0.000002 14.350197
							CHANNELS 3 Xrotation Yrotation Zrotation
							End Site
							{
								OFFSET 0.006081 0.801060 6.949699
							}
						}
					}
				}
			}
		}
	}
	JOINT LeftUpLeg
	{
		OFFSET 5.666161 0.871610 -1.039028
		CHANNELS 3 Xrotation Yrotation Zrotation
		JOINT LeftUpLegRoll
		{
			OFFSET 0.000000 -0.000002 16.600601
			CHANNELS 3 Xrotation Yrotation Zrotation
			JOINT LeftLeg
			{
				OFFSET 0.000000 -0.000004 20.557098
				CHANNELS 3 Xrotation Yrotation Zrotation
				JOINT LeftLegRoll
				{
					OFFSET 0.000000 -0.000003 20.815102
					CHANNELS 3 Xrotation Yrotation Zrotation
					JOINT LeftFoot
					{
						OFFSET 0.000000 -0.000002 16.975700
						CHANNELS 3 Xrotation Yrotation Zrotation
						JOINT LeftToeBase
						{
							OFFSET 0.000000 -0.000002 14.350204
							CHANNELS 3 Xrotation Yrotation Zrotation
							End Site
							{
								OFFSET -0.027260 0.801059 6.949707
							}
						}
					}
				}
			}
		}
	}
}
MOTION
Frames: 12
Frame Time: 0.041667
54.252296 -47.109318 85.793083 -3.375408 1.094977 0.899959 -1.541728 0.282902 -0.320817 0.922650 0.569970 -0.625234 2.567724 0.562386 -0.632113 7.082627 -4.164719 0.793450 2.817787 2.242907 1.168024 -7.430909 -61.275901 -8.923167 -41.863220 -116.522454 -37.802194 0.000002 -0.000001 -0.000006 5.067608 -15.189567 0.441161 -0.000002 -0.000002 -2.999990 -5.000208 -7.998783 0.000173 -7.124199 52.427907 7.857932 -33.362578 119.153005 34.438285 0.000001 0.000007 0.000001 5.676665 12.618519 -0.190403 -0.000006 0.000000 3.000000 -5.000195 7.998711 -0.000164 3.523959 -177.723298 0.544965 -179.999991 0.000005 -1.108002 174.063341 -3.572791 -0.592283 0.000005 -0.000002 0.047540 68.375665 6.871246 2.242591 25.949439 -7.342762 0.738497 3.525924 176.079422 0.382874 -0.000005 -0.000005 -1.157570 -8.152878 1.219849 0.579641 0.000006 0.000004 -0.184496 71.562904 -6.820748 -2.134062 25.910039 7.354019 -0.678029 
54.250996 -47.120224 85.784279 -3.374485 1.094509 0.899316 -1.542170 0.283519 -0.321034 0.921641 0.571312 -0.626437 2.566714 0.563718 -0.633325 7.085073 -4.164748 0.793406 2.809208 2.242344 1.168438 -7.420948 -61.277254 -8.911629 -41.863196 -116.515104 -37.789429 0.000004 -0.000001 -0.000006 5.057031 -15.184518 0.439341 -0.000004 -0.000002 -2.999990 -5.000209 -7.998782 0.000173 -7.124022 52.427316 7.857657 -33.358316 119.149590 34.419324 0.000000 0.000006 0.000001 5.666387 12.608579 -0.188376 -0.000010 0.000000 3.000000 -5.000199 7.998712 -0.000164 3.523603 -177.741275 0.515481 -179.999991 0.000005 -1.108002 174.060008 -3.534968 -0.592555 0.000005 -0.000002 0.047513 68.374401 6.871261 2.242073 25.973992 -7.342890 0.765906 3.524153 176.080405 0.385122 -0.000005 -0.000005 -1.157590 -8.155915 1.218038 0.579630 0.000005 0.000004 -0.184493 71.569324 -6.820759 -2.133972 25.908219 7.354014 -0.675720 
54.251896 -47.118618 85.793396 -3.373415 1.094141 0.898732 -1.542659 0.284136 -0.321290 0.920541 0.572655 -0.627745 2.565615 0.565049 -0.634643 7.087910 -4.164653 0.793437 2.800055 2.241573 1.168945 -7.410229 -61.278859 -8.899221 -41.864360 -116.506949 -37.777848 0.000004 -0.000001 -0.000006 5.046324 -15.179375 0.437507 -0.000001 -0.000002 -2.999990 -5.000208 -7.998782 0.000173 -7.124121 52.426712 7.857709 -33.355048 119.145328 34.401457 0.000002 0.000007 0.000001 5.656291 12.598638 -0.186380 -0.000007 0.000000 3.000000 -5.000200 7.998710 -0.000165 3.523126 -177.761233 0.484802 -179.999991 0.000005 -1.108002 174.056620 -3.496154 -0.591738 0.000005 -0.000002 0.047473 68.373151 6.871276 2.241453 25.999257 -7.342996 0.794238 3.522155 176.081389 0.387365 -0.000005 -0.000005 -1.157610 -8.159040 1.216207 0.579616 0.000006 0.000004 -0.184490 71.575868 -6.820795 -2.134078 25.906291 7.354016 -0.673298 
54.236298 -47.116817 85.798592 -3.372227 1.093843 0.898190 -1.543175 0.284751 -0.321574 0.919378 0.573999 -0.629128 2.564456 0.566380 -0.636034 7.091037 -4.164465 0.793523 2.790475 2.240662 1.169525 -7.398948 -61.280567 -8.886165 -41.865334 -116.498739 -37.765994 0.000001 -0.000002 -0.000006 5.035517 -15.174237 0.435668 -0.000003 -0.000002 -2.999990 -5.000211 -7.998782 0.000173 -7.124417 52.425991 7.858001 -33.350263 119.141763 34.381980 0.000001 0.000007 0.000001 5.646309 12.588594 -0.184384 -0.000006 0.000000 3.000000 -5.000196 7.998712 -0.000164 3.522581 -177.781191 0.453369 -179.999991 0.000005 -1.108002 174.053178 -3.456349 -0.591814 0.000005 -0.000002 0.047423 68.371792 6.871321 2.240846 26.025121 -7.343085 0.823238 3.519999 176.082372 0.389604 -0.000005 -0.000004 -1.157650 -8.162215 1.214346 0.579596 0.000006 0.000004 -0.184486 71.582698 -6.820795 -2.133958 25.904276 7.354024 -0.670793 
54.240097 -47.120625 85.791878 -3.370965 1.093595 0.897671 -1.543719 0.285364 -0.321875 0.918179 0.575343 -0.630554 2.563246 0.567712 -0.637468 7.094313 -4.164237 0.793639 2.780655 2.239662 1.170128 -7.387338 -61.282315 -8.872733 -41.866314 -116.490516 -37.754052 0.000003 -0.000001 -0.000006 5.024647 -15.169094 0.433827 -0.000003 -0.000001 -2.999990 -5.000211 -7.998782 0.000173 -7.124825 52.425264 7.858421 -33.345639 119.138252 34.362634 0.000002 0.000007 0.000001 5.636403 12.578549 -0.182408 -0.000007 -0.000000 3.000000 -5.000196 7.998712 -0.000165 3.521977 -177.802159 0.421437 -179.999991 0.000005 -1.108002 174.049694 -3.416543 -0.591887 0.000004 -0.000002 0.047368 68.370439 6.871364 2.240239 26.051291 -7.343150 0.852606 3.517749 176.082359 0.391778 -0.000005 -0.000005 -1.157690 -8.165429 1.212476 0.579574 0.000006 0.000004 -0.184481 71.589549 -6.820792 -2.134040 25.902254 7.354022 -0.668244 
54.245495 -47.117222 85.801079 -3.369695 1.093357 0.897158 -1.544260 0.285979 -0.322178 0.916969 0.576688 -0.631992 2.562036 0.569042 -0.638915 7.097629 -4.163989 0.793762 2.770766 2.238642 1.170745 -7.375647 -61.284159 -8.859212 -41.865945 -116.483057 -37.740603 0.000002 -0.000002 -0.000006 5.013769 -15.163956 0.431987 -0.000002 -0.000002 -2.999990 -5.000209 -7.998782 0.000173 -7.125251 52.424434 7.858870 -33.340844 119.134687 34.343144 0.000001 0.000006 0.000002 5.626512 12.568602 -0.180438 -0.000005 0.000000 3.000000 -5.000197 7.998711 -0.000165 3.521369 -177.822117 0.389448 -179.999991 0.000005 -1.108002 174.046225 -3.375733 -0.591837 0.000005 -0.000002 0.047312 68.368991 6.871436 2.239544 26.077461 -7.343186 0.882073 3.515481 176.083356 0.394013 -0.000005 -0.000005 -1.157730 -8.168654 1.210605 0.579553 0.000005 0.000004 -0.184476 71.596413 -6.820851 -2.134029 25.900241 7.354029 -0.665689 
54.241997 -47.120419 85.790283 -3.368446 1.093098 0.896635 -1.544796 0.286593 -0.322476 0.915776 0.578032 -0.633410 2.560846 0.570373 -0.640341 7.100887 -4.163761 0.793872 2.760994 2.237662 1.171345 -7.364094 -61.285887 -8.845851 -41.866918 -116.474833 -37.728688 0.000003 -0.000001 -0.000006 5.002919 -15.158814 0.430154 -0.000003 -0.000002 -2.999990 -5.000206 -7.998782 0.000173 -7.125644 52.423710 7.859278 -33.336050 119.131121 34.323644 0.000003 0.000006 0.000001 5.616593 12.558551 -0.178465 -0.000004 0.000000 3.000000 -5.000197 7.998712 -0.000164 3.520785 -177.842089 0.357661 -179.999991 0.000005 -1.108002 174.042728 -3.335928 -0.590905 0.000005 -0.000002 0.047258 68.367639 6.871480 2.238934 26.103523 -7.343202 0.911374 3.513243 176.084353 0.396249 -0.000005 -0.000004 -1.157770 -8.171859 1.208734 0.579531 0.000005 0.000004 -0.184471 71.603257 -6.820845 -2.134009 25.898211 7.354028 -0.663150 
54.245094 -47.123714 85.785294 -3.367282 1.092790 0.896084 -1.545309 0.287208 -0.322754 0.914625 0.579376 -0.634777 2.559697 0.571705 -0.641716 7.103943 -4.163605 0.793946 2.751496 2.236781 1.171899 -7.352910 -61.287506 -8.832901 -41.867916 -116.466624 -37.716868 0.000003 -0.000001 -0.000006 4.992121 -15.153671 0.428322 -0.000002 -0.000002 -2.999990 -5.000212 -7.998782 0.000173 -7.125892 52.423003 7.859511 -33.331426 119.127611 34.304304 0.000003 0.000008 0.000001 5.606593 12.548606 -0.176487 -0.000006 0.000000 3.000000 -5.000198 7.998712 -0.000165 3.520245 -177.862033 0.326389 -179.999991 0.000005 -1.108002 174.039285 -3.296124 -0.590961 0.000005 -0.000002 0.047210 68.366280 6.871525 2.238328 26.129187 -7.343192 0.940212 3.511126 176.084353 0.398426 -0.000005 -0.000005 -1.157810 -8.175026 1.206884 0.579512 0.000005 0.000004 -0.184467 71.609998 -6.820872 -2.134003 25.896295 7.354019 -0.660663 
54.240696 -47.125217 85.778389 -3.366243 1.092402 0.895487 -1.545791 0.287825 -0.323001 0.913546 0.580719 -0.636062 2.558617 0.573036 -0.643010 7.106691 -4.163530 0.793960 2.742467 2.236058 1.172386 -7.342368 -61.289077 -8.820698 -41.867724 -116.459206 -37.703805 0.000002 0.000000 -0.000006 4.981453 -15.148519 0.426502 -0.000003 -0.000002 -2.999990 -5.000213 -7.998782 0.000173 -7.125939 52.422388 7.859495 -33.327164 119.124196 34.285330 0.000000 0.000006 0.000002 5.596454 12.538562 -0.174495 -0.000006 0.000000 3.000000 -5.000198 7.998711 -0.000165 3.519799 -177.882004 0.295955 -179.999991 0.000005 -1.108002 174.035884 -3.257314 -0.591112 0.000005 -0.000002 0.047173 68.365023 6.871538 2.237708 26.154333 -7.343161 0.968351 3.509179 176.085337 0.400670 -0.000005 -0.000005 -1.157830 -8.178130 1.205053 0.579497 0.000005 0.000003 -0.184464 71.616535 -6.820902 -2.134007 25.894378 7.354028 -0.658276 
54.232998 -47.118118 85.774689 -3.365380 1.091894 0.894826 -1.546227 0.288444 -0.323206 0.912564 0.582061 -0.637232 2.557629 0.574368 -0.644190 7.109018 -4.163589 0.793892 2.734070 2.235554 1.172779 -7.332625 -61.290409 -8.809410 -41.869063 -116.451119 -37.692614 0.000004 -0.000000 -0.000007 4.970919 -15.143469 0.424698 -0.000002 -0.000002 -2.999990 -5.000206 -7.998782 0.000173 -7.125682 52.421907 7.859121 -33.323079 119.120835 34.266513 0.000002 0.000006 0.000002 5.586150 12.528718 -0.172508 -0.000006 0.000000 3.000001 -5.000199 7.998712 -0.000165 3.519472 -177.899968 0.266795 -179.999991 0.000005 -1.108002 174.032564 -3.220487 -0.590452 0.000005 -0.000002 0.047150 68.363766 6.871553 2.237290 26.178582 -7.343119 0.995482 3.507471 176.086320 0.402922 -0.000005 -0.000004 -1.157850 -8.181146 1.203262 0.579488 0.000005 0.000003 -0.184462 71.622941 -6.820867 -2.134009 25.892557 7.354025 -0.655987 
54.234295 -47.120117 85.770584 -3.364743 1.091246 0.894085 -1.546598 0.289066 -0.323357 0.911705 0.583402 -0.638258 2.556769 0.575700 -0.645225 7.110802 -4.163811 0.793720 2.726483 2.235339 1.173046 -7.323953 -61.291488 -8.799364 -41.869060 -116.443770 -37.680142 0.000001 -0.000001 -0.000006 4.960579 -15.138312 0.422901 -0.000005 -0.000002 -2.999990 -5.000209 -7.998782 0.000173 -7.125013 52.421449 7.858255 -33.320337 119.116723 34.249202 -0.000000 0.000006 0.000002 5.575592 12.518879 -0.170500 -0.000006 0.000000 3.000000 -5.000194 7.998711 -0.000164 3.519291 -177.917917 0.239108 -179.999991 0.000005 -1.108002 174.029313 -3.185659 -0.590005 0.000004 -0.000002 0.047146 68.362715 6.871546 2.236654 26.201816 -7.343048 1.021330 3.506075 176.087317 0.405181 -0.000005 -0.000005 -1.157850 -8.184041 1.201511 0.579485 0.000004 0.000004 -0.184462 71.628925 -6.820877 -2.134044 25.890942 7.354025 -0.653881 
54.265995 -47.078724 85.770691 -3.364381 1.090428 0.893247 -1.546910 0.289690 -0.323443 0.910996 0.584741 -0.639106 2.556060 0.577032 -0.646083 7.111921 -4.164238 0.793420 2.719880 2.235461 1.173158 -7.316581 -61.292287 -8.790798 -41.869405 -116.436543 -37.668237 0.000001 -0.000001 -0.000006 4.950470 -15.133252 0.421125 -0.000003 -0.000002 -2.999990 -5.000210 -7.998783 0.000173 -7.123905 52.421217 7.856861 -33.317144 119.113622 34.231255 0.000002 0.000007 0.000001 5.564748 12.509046 -0.168453 -0.000004 0.000000 3.000000 -5.000195 7.998711 -0.000164 3.519304 -177.933900 0.213332 -179.999991 0.000005 -1.108002 174.026185 -3.151824 -0.589651 0.000004 -0.000002 0.047164 68.361765 6.871547 2.236114 26.223830 -7.342964 1.045641 3.505033 176.089312 0.407516 -0.000005 -0.000005 -1.157840 -8.186806 1.199821 0.579492 0.000004 0.000004 -0.184463 71.634498 -6.820889 -2.134107 25.889424 7.354027 -0.651945 
